<?xml version="1.0" encoding="UTF-8" standalone="no"?>
<svg width="400" height="400" xmlns="http://www.w3.org/2000/svg">
  <rect width="100%" height="100%" fill="#ffffff" />
  <path d="M200.00,50.00 A150.00,150.00 0 0,1 231.19,53.28 L200.00,200.00 Z" fill="#22b14c" />
  <path d="M231.19,53.28 A150.00,150.00 0 0,1 261.01,62.97 L200.00,200.00 Z" fill="#00a2e8" />
  <path d="M261.01,62.97 A150.00,150.00 0 0,1 288.17,78.65 L200.00,200.00 Z" fill="#b14c22" />
  <path d="M288.17,78.65 A150.00,150.00 0 0,1 311.47,99.63 L200.00,200.00 Z" fill="#4c22b1" />
  <path d="M311.47,99.63 A150.00,150.00 0 0,1 329.90,125.00 L200.00,200.00 Z" fill="#a2e800" />
  <path d="M329.90,125.00 A150.00,150.00 0 0,1 342.66,153.65 L200.00,200.00 Z" fill="#e800a2" />
  <path d="M342.66,153.65 A150.00,150.00 0 0,1 349.18,184.32 L200.00,200.00 Z" fill="#efe4b0" />
  <path d="M349.18,184.32 A150.00,150.00 0 0,1 349.18,215.68 L200.00,200.00 Z" fill="#e4b0ff" />
  <path d="M349.18,215.68 A150.00,150.00 0 0,1 342.66,246.35 L200.00,200.00 Z" fill="#b0efe4" />
  <path d="M342.66,246.35 A150.00,150.00 0 0,1 329.90,275.00 L200.00,200.00 Z" fill="#ff7f27" />
  <path d="M329.90,275.00 A150.00,150.00 0 0,1 311.47,300.37 L200.00,200.00 Z" fill="#27ff7f" />
  <path d="M311.47,300.37 A150.00,150.00 0 0,1 288.17,321.35 L200.00,200.00 Z" fill="#c3c3ff" />
  <path d="M288.17,321.35 A150.00,150.00 0 0,1 261.01,337.03 L200.00,200.00 Z" fill="#7f27ff" />
  <path d="M261.01,337.03 A150.00,150.00 0 0,1 231.19,346.72 L200.00,200.00 Z" fill="#ed1c24" />
  <path d="M231.19,346.72 A150.00,150.00 0 0,1 200.00,350.00 L200.00,200.00 Z" fill="#498866" />
  <path d="M200.00,350.00 A150.00,150.00 0 0,1 168.81,346.72 L200.00,200.00 Z" fill="#664988" />
  <path d="M168.81,346.72 A150.00,150.00 0 0,1 138.99,337.03 L200.00,200.00 Z" fill="#886649" />
  <path d="M138.99,337.03 A150.00,150.00 0 0,1 111.83,321.35 L200.00,200.00 Z" fill="#24ed1c" />
  <path d="M111.83,321.35 A150.00,150.00 0 0,1 88.53,300.37 L200.00,200.00 Z" fill="#1c24ed" />
  <path d="M88.53,300.37 A150.00,150.00 0 0,1 70.10,275.00 L200.00,200.00 Z" fill="#880015" />
  <path d="M70.10,275.00 A150.00,150.00 0 0,1 57.34,246.35 L200.00,200.00 Z" fill="#001588" />
  <path d="M57.34,246.35 A150.00,150.00 0 0,1 50.82,215.68 L200.00,200.00 Z" fill="#92beed" />
  <path d="M50.82,215.68 A150.00,150.00 0 0,1 50.82,184.32 L200.00,200.00 Z" fill="#7092be" />
  <path d="M50.82,184.32 A150.00,150.00 0 0,1 57.34,153.65 L200.00,200.00 Z" fill="#158800" />
  <path d="M57.34,153.65 A150.00,150.00 0 0,1 70.10,125.00 L200.00,200.00 Z" fill="#be7092" />
  <path d="M70.10,125.00 A150.00,150.00 0 0,1 88.53,99.63 L200.00,200.00 Z" fill="#bfe7ff" />
  <path d="M88.53,99.63 A150.00,150.00 0 0,1 111.83,78.65 L200.00,200.00 Z" fill="#c8bfe7" />
  <path d="M111.83,78.65 A150.00,150.00 0 0,1 138.99,62.97 L200.00,200.00 Z" fill="#7f8812" />
  <path d="M138.99,62.97 A150.00,150.00 0 0,1 168.81,53.28 L200.00,200.00 Z" fill="#e7c8bf" />
  <path d="M168.81,53.28 A150.00,150.00 0 0,1 200.00,50.00 L200.00,200.00 Z" fill="#88127f" />
</svg>
