<?xml version="1.0" encoding="UTF-8" standalone="no"?>
<svg width="400" height="400" xmlns="http://www.w3.org/2000/svg">
  <rect width="100%" height="100%" fill="#ffffff" />
  <path d="M200.00,50.00 A150.00,150.00 0 0,1 231.19,53.28 L200.00,200.00 Z" fill="#fe0018" />
  <path d="M231.19,53.28 A150.00,150.00 0 0,1 261.01,62.97 L200.00,200.00 Z" fill="#20433f" />
  <path d="M261.01,62.97 A150.00,150.00 0 0,1 288.17,78.65 L200.00,200.00 Z" fill="#fe001a" />
  <path d="M288.17,78.65 A150.00,150.00 0 0,1 311.47,99.63 L200.00,200.00 Z" fill="#214440" />
  <path d="M311.47,99.63 A150.00,150.00 0 0,1 329.90,125.00 L200.00,200.00 Z" fill="#1e4540" />
  <path d="M329.90,125.00 A150.00,150.00 0 0,1 342.66,153.65 L200.00,200.00 Z" fill="#1d443f" />
  <path d="M342.66,153.65 A150.00,150.00 0 0,1 349.18,184.32 L200.00,200.00 Z" fill="#1c433e" />
  <path d="M349.18,184.32 A150.00,150.00 0 0,1 349.18,215.68 L200.00,200.00 Z" fill="#fd0118" />
  <path d="M349.18,215.68 A150.00,150.00 0 0,1 342.66,246.35 L200.00,200.00 Z" fill="#1f423e" />
  <path d="M342.66,246.35 A150.00,150.00 0 0,1 329.90,275.00 L200.00,200.00 Z" fill="#fd011a" />
  <path d="M329.90,275.00 A150.00,150.00 0 0,1 311.47,300.37 L200.00,200.00 Z" fill="#204440" />
  <path d="M311.47,300.37 A150.00,150.00 0 0,1 288.17,321.35 L200.00,200.00 Z" fill="#fe0116" />
  <path d="M288.17,321.35 A150.00,150.00 0 0,1 261.01,337.03 L200.00,200.00 Z" fill="#234340" />
  <path d="M261.01,337.03 A150.00,150.00 0 0,1 231.19,346.72 L200.00,200.00 Z" fill="#1b423d" />
  <path d="M231.19,346.72 A150.00,150.00 0 0,1 200.00,350.00 L200.00,200.00 Z" fill="#1e423e" />
  <path d="M200.00,350.00 A150.00,150.00 0 0,1 168.81,346.72 L200.00,200.00 Z" fill="#1f433f" />
  <path d="M168.81,346.72 A150.00,150.00 0 0,1 138.99,337.03 L200.00,200.00 Z" fill="#224541" />
  <path d="M138.99,337.03 A150.00,150.00 0 0,1 111.83,321.35 L200.00,200.00 Z" fill="#1b443e" />
  <path d="M111.83,321.35 A150.00,150.00 0 0,1 88.53,300.37 L200.00,200.00 Z" fill="#1a433d" />
  <path d="M88.53,300.37 A150.00,150.00 0 0,1 70.10,275.00 L200.00,200.00 Z" fill="#1f4641" />
  <path d="M70.10,275.00 A150.00,150.00 0 0,1 57.34,246.35 L200.00,200.00 Z" fill="#1c453f" />
  <path d="M57.34,246.35 A150.00,150.00 0 0,1 50.82,215.68 L200.00,200.00 Z" fill="#1d4640" />
  <path d="M50.82,215.68 A150.00,150.00 0 0,1 50.82,184.32 L200.00,200.00 Z" fill="#ff0119" />
  <path d="M50.82,184.32 A150.00,150.00 0 0,1 57.34,153.65 L200.00,200.00 Z" fill="#fe021b" />
  <path d="M57.34,153.65 A150.00,150.00 0 0,1 70.10,125.00 L200.00,200.00 Z" fill="#fa0117" />
  <path d="M70.10,125.00 A150.00,150.00 0 0,1 88.53,99.63 L200.00,200.00 Z" fill="#21413e" />
  <path d="M88.53,99.63 A150.00,150.00 0 0,1 111.83,78.65 L200.00,200.00 Z" fill="#204742" />
  <path d="M111.83,78.65 A150.00,150.00 0 0,1 138.99,62.97 L200.00,200.00 Z" fill="#fe001c" />
  <path d="M138.99,62.97 A150.00,150.00 0 0,1 168.81,53.28 L200.00,200.00 Z" fill="#ff0018" />
  <path d="M168.81,53.28 A150.00,150.00 0 0,1 200.00,50.00 L200.00,200.00 Z" fill="#22423f" />
</svg>
