<?xml version="1.0" encoding="UTF-8" standalone="no"?>
<svg width="400" height="400" xmlns="http://www.w3.org/2000/svg">
  <rect width="100%" height="100%" fill="#ffffff" />
  <path d="M200.00,50.00 A150.00,150.00 0 0,1 246.35,57.34 L200.00,200.00 Z" fill="#22b14c" />
  <path d="M246.35,57.34 A150.00,150.00 0 0,1 288.17,78.65 L200.00,200.00 Z" fill="#00a2e8" />
  <path d="M288.17,78.65 A150.00,150.00 0 0,1 321.35,111.83 L200.00,200.00 Z" fill="#b14c22" />
  <path d="M321.35,111.83 A150.00,150.00 0 0,1 342.66,153.65 L200.00,200.00 Z" fill="#4c22b1" />
  <path d="M342.66,153.65 A150.00,150.00 0 0,1 350.00,200.00 L200.00,200.00 Z" fill="#a2e800" />
  <path d="M350.00,200.00 A150.00,150.00 0 0,1 342.66,246.35 L200.00,200.00 Z" fill="#e800a2" />
  <path d="M342.66,246.35 A150.00,150.00 0 0,1 321.35,288.17 L200.00,200.00 Z" fill="#efe4b0" />
  <path d="M321.35,288.17 A150.00,150.00 0 0,1 288.17,321.35 L200.00,200.00 Z" fill="#e4b0ff" />
  <path d="M288.17,321.35 A150.00,150.00 0 0,1 246.35,342.66 L200.00,200.00 Z" fill="#b0efe4" />
  <path d="M246.35,342.66 A150.00,150.00 0 0,1 200.00,350.00 L200.00,200.00 Z" fill="#ff7f27" />
  <path d="M200.00,350.00 A150.00,150.00 0 0,1 153.65,342.66 L200.00,200.00 Z" fill="#27ff7f" />
  <path d="M153.65,342.66 A150.00,150.00 0 0,1 111.83,321.35 L200.00,200.00 Z" fill="#c3c3ff" />
  <path d="M111.83,321.35 A150.00,150.00 0 0,1 78.65,288.17 L200.00,200.00 Z" fill="#7f27ff" />
  <path d="M78.65,288.17 A150.00,150.00 0 0,1 57.34,246.35 L200.00,200.00 Z" fill="#ed1c24" />
  <path d="M57.34,246.35 A150.00,150.00 0 0,1 50.00,200.00 L200.00,200.00 Z" fill="#498866" />
  <path d="M50.00,200.00 A150.00,150.00 0 0,1 57.34,153.65 L200.00,200.00 Z" fill="#664988" />
  <path d="M57.34,153.65 A150.00,150.00 0 0,1 78.65,111.83 L200.00,200.00 Z" fill="#886649" />
  <path d="M78.65,111.83 A150.00,150.00 0 0,1 111.83,78.65 L200.00,200.00 Z" fill="#24ed1c" />
  <path d="M111.83,78.65 A150.00,150.00 0 0,1 153.65,57.34 L200.00,200.00 Z" fill="#1c24ed" />
  <path d="M153.65,57.34 A150.00,150.00 0 0,1 200.00,50.00 L200.00,200.00 Z" fill="#880015" />
</svg>
